<mxfile host="app.diagrams.net" modified="2024-01-15T02:27:36.964Z" agent="Mozilla/5.0 (Windows NT 10.0; Win64; x64; rv:121.0) Gecko/20100101 Firefox/121.0" etag="zqZ1l0SHTnbdaRjQzQmO" version="22.1.17" type="github">
  <diagram name="第 1 页" id="zkXlzNXMupYskvnwvL7l">
    <mxGraphModel dx="1434" dy="774" grid="1" gridSize="10" guides="1" tooltips="1" connect="1" arrows="1" fold="1" page="1" pageScale="1" pageWidth="1169" pageHeight="827" math="0" shadow="0">
      <root>
        <mxCell id="0" />
        <mxCell id="1" parent="0" />
        <mxCell id="PJvlCIirkV0077DgXP1W-1" value="&lt;font style=&quot;font-size: 24px;&quot;&gt;深圳市CIM基础平台&lt;/font&gt;" style="rounded=1;whiteSpace=wrap;html=1;" vertex="1" parent="1">
          <mxGeometry x="440" y="160" width="240" height="60" as="geometry" />
        </mxCell>
        <mxCell id="PJvlCIirkV0077DgXP1W-2" value="&lt;font style=&quot;font-size: 24px;&quot;&gt;深圳市CIM基础平台&lt;/font&gt;" style="rounded=1;whiteSpace=wrap;html=1;" vertex="1" parent="1">
          <mxGeometry x="440" y="360" width="240" height="60" as="geometry" />
        </mxCell>
      </root>
    </mxGraphModel>
  </diagram>
</mxfile>
